<svg xmlns="http://www.w3.org/2000/svg" viewBox="454 975 36 36">
  <defs>
    <style>
      .cls-1 {
        fill: #00c4ff;
      }

      .cls-2, .cls-3 {
        fill: #fff;
      }

      .cls-3 {
        font-size: 12px;
        font-family: PingFangHK-Semibold, PingFang HK;
        font-weight: 600;
        letter-spacing: 0.1em;
      }
    </style>
  </defs>
  <g id="add_people" data-name="add people" transform="translate(205 872)">
    <path id="Path_245" data-name="Path 245" class="cls-1" d="M18,0A18,18,0,1,1,0,18,18,18,0,0,1,18,0Z" transform="translate(249 103)"/>
    <path id="Path_73" data-name="Path 73" class="cls-2" d="M8.3,0a6.471,6.471,0,0,1,4.433,1.83h0a6.117,6.117,0,0,1,0,8.726,4.553,4.553,0,0,1-.633.563,6.071,6.071,0,0,1,2.744,1.619h0a6.136,6.136,0,0,1,1.83,4.293V18.3a.705.705,0,0,1-.7.7H.7a.705.705,0,0,1-.7-.7H0V17.1a5.89,5.89,0,0,1,1.83-4.293,6.071,6.071,0,0,1,2.744-1.619c-.211-.211-.422-.352-.633-.563a6.117,6.117,0,0,1,0-8.726A5.734,5.734,0,0,1,8.3,0Zm3.307,2.885h0a4.757,4.757,0,0,0-6.756,0A5.005,5.005,0,0,0,3.519,6.193,4.785,4.785,0,0,0,4.926,9.57h0a4.785,4.785,0,0,0,8.163-3.378,4.814,4.814,0,0,0-1.478-3.307Zm-1.2,9.57H6.122a4.746,4.746,0,0,0-3.307,1.407A4.683,4.683,0,0,0,1.478,17.17v.422H15.13V17.17a4.746,4.746,0,0,0-1.407-3.307h0a4.465,4.465,0,0,0-3.307-1.407Z" transform="translate(257 112)"/>
    <text id="_" data-name="+" class="cls-3" transform="translate(273.48 122.703)"><tspan x="0" y="0">+</tspan></text>
  </g>
</svg>
