<svg xmlns="http://www.w3.org/2000/svg" xmlns:xlink="http://www.w3.org/1999/xlink" viewBox="1897.999 299 110.001 40">
  <defs>
    <style>
      .cls-1 {
        fill: #111822;
      }

      .cls-2 {
        fill: #cbdfff;
        font-size: 12px;
        font-family: PingFangHK-Regular, PingFang HK;
        letter-spacing: 0.1em;
      }

      .cls-3 {
        clip-path: url(#clip-path);
      }

      .cls-4 {
        fill: #0041ac;
      }

      .cls-5 {
        fill: #fff;
      }

      .cls-6 {
        fill: #ea0000;
      }

      .cls-7 {
        fill: #003893;
      }
    </style>
    <clipPath id="clip-path">
      <circle id="Ellipse_51" data-name="Ellipse 51" cx="10.607" cy="10.607" r="10.607" transform="translate(0 15) rotate(-45)"/>
    </clipPath>
  </defs>
  <g id="澳币提现-button" transform="translate(758 139)">
    <rect id="Rectangle_402" data-name="Rectangle 402" class="cls-1" width="110.001" height="40" rx="20" transform="translate(1139.999 160)"/>
    <text id="澳币提现" class="cls-2" transform="translate(1206.138 186)"><tspan x="-25.8" y="0">澳币提现</tspan></text>
    <g id="Group_380" data-name="Group 380" transform="translate(1108.591 269.585)">
      <g id="Group_379" data-name="Group 379" class="cls-3" transform="translate(37.408 -104.586)">
        <path id="Path_228" data-name="Path 228" class="cls-4" d="M0,0H33.792V21.458H0Z" transform="translate(-1.52 4.25)"/>
        <g id="Group_377" data-name="Group 377" transform="translate(-0.476 5.38)">
          <rect id="Rectangle_387" data-name="Rectangle 387" class="cls-5" width="14.866" height="9.786" transform="translate(0 0)"/>
          <g id="Group_376" data-name="Group 376" transform="translate(0 0)">
            <path id="Path_189" data-name="Path 189" class="cls-6" d="M40.682,31.762H34.05V27.8l-1.52,0v3.958H25.8v1.918l6.73,0,.016,3.9h1.491l.012-3.9h6.632Z" transform="translate(-25.796 -27.8)"/>
            <g id="Group_372" data-name="Group 372">
              <path id="Path_190" data-name="Path 190" class="cls-7" d="M70.439,27.8v2.963L65.9,27.8Z" transform="translate(-64.266 -27.8)"/>
              <path id="Path_191" data-name="Path 191" class="cls-7" d="M25.7,56.6v2.113h3.2Z" transform="translate(-25.7 -55.43)"/>
              <path id="Path_192" data-name="Path 192" class="cls-6" d="M25.7,29l0,.723,3.8,2.5h1.1Z" transform="translate(-25.7 -28.951)"/>
            </g>
            <g id="Group_373" data-name="Group 373" transform="translate(8.713 0.004)">
              <path id="Path_193" data-name="Path 193" class="cls-7" d="M240.1,27.9l0,2.963,4.515-2.963Z" transform="translate(-240.1 -27.9)"/>
              <path id="Path_194" data-name="Path 194" class="cls-7" d="M316.384,55.3v2.17l-3.284,0Z" transform="translate(-310.133 -54.186)"/>
            </g>
            <g id="Group_374" data-name="Group 374" transform="translate(8.685 6.571)">
              <path id="Path_195" data-name="Path 195" class="cls-7" d="M239.437,200.547,239.4,197.3l5.043,3.247Z" transform="translate(-239.4 -196.983)"/>
              <path id="Path_196" data-name="Path 196" class="cls-7" d="M316.428,191.739v-2.227L313.1,189.5Z" transform="translate(-310.105 -189.5)"/>
              <path id="Path_197" data-name="Path 197" class="cls-6" d="M275.717,193v-.691L271.9,189.8h-1.1Z" transform="translate(-269.524 -189.788)"/>
            </g>
            <g id="Group_375" data-name="Group 375" transform="translate(0 6.567)">
              <path id="Path_198" data-name="Path 198" class="cls-7" d="M63.236,200.5l-.016-3.2-4.82,3.15Z" transform="translate(-57.071 -196.979)"/>
              <path id="Path_199" data-name="Path 199" class="cls-7" d="M25.7,191.513V189.4h3.2Z" transform="translate(-25.7 -189.4)"/>
            </g>
            <path id="Path_200" data-name="Path 200" class="cls-6" d="M243.8,31.08h1.077l4.938-3.28-1.1.008Z" transform="translate(-234.937 -27.8)"/>
            <path id="Path_201" data-name="Path 201" class="cls-6" d="M26,193.386l1.126,0,4.893-3.19H30.9Z" transform="translate(-25.988 -183.6)"/>
          </g>
        </g>
        <g id="Group_378" data-name="Group 378" transform="translate(18.019 7.924)">
          <path id="Path_202" data-name="Path 202" class="cls-5" d="M481.861,196.1l.211-.8.252.825.7-.317-.443.675.719.362-.825.085.146.8-.549-.593-.553.614.171-.87-.89-.02.8-.382-.549-.675Z" transform="translate(-480.8 -191.037)"/>
          <path id="Path_203" data-name="Path 203" class="cls-5" d="M564.461,91.2l.211-.8.256.829.7-.321-.447.679.719.362-.825.085.15.8-.553-.593-.549.614.167-.87-.89-.02.8-.382-.549-.679Z" transform="translate(-560.043 -90.4)"/>
          <path id="Path_204" data-name="Path 204" class="cls-5" d="M647.061,188.5l.211-.8.256.825.7-.317-.447.675.719.362-.825.085.15.8-.553-.593-.549.614.167-.87-.89-.02.8-.382-.549-.675Z" transform="translate(-639.286 -183.746)"/>
          <path id="Path_205" data-name="Path 205" class="cls-5" d="M563.661,393.6l.211-.8.252.825.7-.317-.443.679.719.358-.825.085.146.8-.549-.593-.553.618.171-.87-.89-.02.8-.382-.549-.679Z" transform="translate(-559.276 -380.511)"/>
          <path id="Path_206" data-name="Path 206" class="cls-5" d="M628.828,272.267l.211-.467.171.443.528.045-.4.317.15.508-.447-.3-.484.317.167-.528-.423-.317Z" transform="translate(-622.306 -264.428)"/>
        </g>
        <path id="Path_207" data-name="Path 207" class="cls-5" d="M164.386,340.23l.374-1.431.455,1.467,1.244-.565-.792,1.207,1.28.638-1.471.154.264,1.431-.979-1.057-.979,1.093.3-1.544-1.581-.037,1.431-.679-.979-1.207Z" transform="translate(-157.416 -320.781)"/>
      </g>
    </g>
  </g>
</svg>
