<svg xmlns="http://www.w3.org/2000/svg" xmlns:xlink="http://www.w3.org/1999/xlink" viewBox="-23327.5 8716.5 44.883 45">
  <defs>
    <style>
      .cls-1 {
        fill: aqua;
      }

      .cls-2 {
        filter: url(#icon_shop_setting_light);
      }
    </style>
    <filter id="icon_shop_setting_light" x="-23327.5" y="8716.5" width="44.883" height="45" filterUnits="userSpaceOnUse">
      <feOffset input="SourceAlpha"/>
      <feGaussianBlur stdDeviation="2.5" result="blur"/>
      <feFlood flood-color="aqua"/>
      <feComposite operator="in" in2="blur"/>
      <feComposite in="SourceGraphic"/>
    </filter>
  </defs>
  <g class="cls-2" transform="matrix(1, 0, 0, 1, 0, 0)">
    <path id="icon_shop_setting_light-2" data-name="icon_shop setting_light" class="cls-1" d="M28.6,11.44H25.681a2.164,2.164,0,0,1-.233-.817v-.117c-.117-.233-.233-.584-.35-.817L27.082,7.7h0a1.269,1.269,0,0,0,0-1.751L23.813,2.685h0a1.25,1.25,0,0,0-1.634.117L20.195,4.786c-.35-.117-.584-.233-.934-.35a5.691,5.691,0,0,1-.817-.35V1.167A1.17,1.17,0,0,0,17.276,0H12.724a1.17,1.17,0,0,0-1.167,1.167V4.086a11.019,11.019,0,0,0-1.051.35,5.691,5.691,0,0,1-.817.35L7.821,2.8H7.7a1.269,1.269,0,0,0-1.751,0L2.8,5.953h0A1.269,1.269,0,0,0,2.8,7.7L4.786,9.689a5.691,5.691,0,0,1-.35.817v.117a5.691,5.691,0,0,0-.35.817H1.167A1.17,1.17,0,0,0,0,12.607V17.16a1.17,1.17,0,0,0,1.167,1.167H4.086c.117.233.233.584.35.817v.117a5.691,5.691,0,0,0,.35.817L2.8,22.062v.117a1.269,1.269,0,0,0,0,1.751L6.07,27.2h0a1.269,1.269,0,0,0,1.751,0l1.984-1.984a5.691,5.691,0,0,0,.817.35h.117c.233.117.584.233.817.35v2.918A1.17,1.17,0,0,0,12.724,30h4.553a1.17,1.17,0,0,0,1.167-1.167V25.914a5.691,5.691,0,0,0,.817-.35c.233-.117.584-.233.817-.35L22.062,27.2h0a1.269,1.269,0,0,0,1.751,0l3.268-3.268h0a1.269,1.269,0,0,0,0-1.751L25.1,20.195c.117-.233.233-.584.35-.817s.233-.584.35-.817h2.918a1.17,1.17,0,0,0,1.167-1.167V12.84a1.259,1.259,0,0,0-1.284-1.4Zm-1.167,4.553H24.864A1.152,1.152,0,0,0,23.7,17.043a4.182,4.182,0,0,1-.467,1.284,12.733,12.733,0,0,1-.7,1.284,1.224,1.224,0,0,0,.117,1.518h0L24.514,23,23,24.514l-1.868-1.868a1.1,1.1,0,0,0-1.518-.117,4.315,4.315,0,0,1-1.284.584,6.581,6.581,0,0,1-1.4.467,1.137,1.137,0,0,0-.934,1.167v2.568h-2.1V24.747A1.241,1.241,0,0,0,12.84,23.58a4.182,4.182,0,0,1-1.284-.467h0a6.972,6.972,0,0,1-1.284-.7,1.224,1.224,0,0,0-1.518.117h0L6.887,24.514,5.37,23l1.868-1.868a1.468,1.468,0,0,0,.233-1.518c-.233-.467-.467-.817-.7-1.284h0c-.117-.467-.35-.934-.467-1.284a1.137,1.137,0,0,0-1.167-.934H2.451V13.891H5.019A1.241,1.241,0,0,0,6.187,12.84a4.182,4.182,0,0,1,.467-1.284V11.44c.233-.467.467-.817.7-1.284a1.236,1.236,0,0,0-.117-1.518h0L5.37,6.887,6.887,5.37,8.755,7.237a1.091,1.091,0,0,0,1.518.117,2.422,2.422,0,0,1,1.167-.7,6.581,6.581,0,0,1,1.4-.467,1.137,1.137,0,0,0,.934-1.167h0V2.451h2.1V5.019a1.152,1.152,0,0,0,1.051,1.167,4.182,4.182,0,0,1,1.284.467,12.733,12.733,0,0,1,1.284.7,1.107,1.107,0,0,0,1.518-.233L22.763,5.37l1.751,1.518L22.646,8.755a1.1,1.1,0,0,0-.117,1.518,12.733,12.733,0,0,1,.7,1.284h0A8.866,8.866,0,0,1,23.7,12.84a1.137,1.137,0,0,0,1.167.934h2.568v2.218ZM14.942,9.805h0a5.182,5.182,0,1,0,3.619,1.518,5.121,5.121,0,0,0-3.619-1.518Zm2.568,7.7h0a3.432,3.432,0,0,1-2.568,1.051,3.432,3.432,0,0,1-2.568-1.051,3.621,3.621,0,0,1-1.051-2.568,3.7,3.7,0,0,1,1.051-2.568,3.621,3.621,0,0,1,2.568-1.051,3.7,3.7,0,0,1,2.568,1.051,3.432,3.432,0,0,1,1.051,2.568A3.621,3.621,0,0,1,17.51,17.51Z" transform="translate(-23320 8724)"/>
  </g>
</svg>
