<svg xmlns="http://www.w3.org/2000/svg" viewBox="1897.999 239 110.001 40">
  <defs>
    <style>
      .cls-1 {
        fill: #111822;
      }

      .cls-2 {
        fill: #cbdfff;
        font-size: 12px;
        font-family: PingFangHK-Regular, PingFang HK;
        letter-spacing: 0.1em;
      }

      .cls-3 {
        fill: #e50009;
      }

      .cls-4 {
        fill: #ffeb00;
      }
    </style>
  </defs>
  <g id="人民币提现-button" transform="translate(758 139)">
    <rect id="Rectangle_373" data-name="Rectangle 373" class="cls-1" width="110.001" height="40" rx="20" transform="translate(1139.999 100)"/>
    <text id="人民币提现" class="cls-2" transform="translate(1209.088 125)"><tspan x="-32.4" y="0">人民币提现</tspan></text>
    <g id="Group_381" data-name="Group 381" transform="translate(1150.196 109)">
      <path id="Path_208" data-name="Path 208" class="cls-3" d="M20.889,7.037a10.788,10.788,0,0,0-20.23,0A10.939,10.939,0,0,0,0,10.78a10.768,10.768,0,1,0,21.537-.011A10.655,10.655,0,0,0,20.889,7.037Z"/>
      <path id="yellow_1_" class="cls-4" d="M46.2,56.452l-.76-2.156-.748,2.167-2.29.056,1.832,1.374-.648,2.189,1.877-1.318,1.888,1.3-.67-2.189,1.821-1.4Zm5.306,4.3-.559.693-.849-.279.492.748-.525.715.86-.235.525.726.045-.894.849-.268-.838-.313ZM50.823,54.6l.469.76.1-.882.871-.212-.815-.369L51.515,53l-.6.659-.827-.335.436.771-.57.681Zm3.653,4.647-.894-.011-.3-.838L53,59.244l-.894.022.715.536-.246.86.726-.514.737.5-.268-.849ZM52.1,56.586l.882.134.179.871.4-.793.882.1-.637-.626.369-.815-.793.4-.659-.6.145.882Z" transform="translate(-37.664 -47.08)"/>
    </g>
  </g>
</svg>
