<svg xmlns="http://www.w3.org/2000/svg" viewBox="-4306 -2763 23.087 23.099">
  <defs>
    <style>
      .cls-1 {
        fill: #e50009;
      }

      .cls-2 {
        fill: #ffeb00;
      }
    </style>
  </defs>
  <g id="RMB" transform="translate(-4306 -2763)">
    <path id="Path_208" data-name="Path 208" class="cls-1" d="M22.392,7.544a11.564,11.564,0,0,0-21.686,0A11.726,11.726,0,0,0,0,11.555a11.543,11.543,0,1,0,23.087-.012A11.422,11.422,0,0,0,22.392,7.544Z"/>
    <path id="yellow_1_" class="cls-2" d="M46.471,56.7l-.814-2.311-.8,2.323-2.455.06,1.964,1.473-.695,2.347,2.012-1.413L47.7,60.568l-.718-2.347,1.952-1.5Zm5.688,4.61-.6.742-.91-.3.527.8-.563.766.922-.251.563.778.048-.958.91-.287-.9-.335Zm-.73-6.6.5.814.108-.946.934-.228-.874-.4L52.171,53l-.647.706-.886-.359.467.826-.611.73Zm3.916,4.981-.958-.012-.323-.9-.3.91-.958.024.766.575-.263.922.778-.551.79.539-.287-.91Zm-2.551-2.85.946.144.192.934.431-.85.946.108-.683-.671.4-.874-.85.431-.706-.647.156.946Z" transform="translate(-37.323 -46.653)"/>
  </g>
</svg>
