<svg xmlns="http://www.w3.org/2000/svg" viewBox="-2699 -3735.4 64.541 33.4">
  <defs>
    <style>
      .cls-1 {
        fill: #cbdfff;
      }
    </style>
  </defs>
  <g id="icon_AUD" transform="translate(-2969 -3932)">
    <g id="Group_417" data-name="Group 417" transform="translate(270 196.6)">
      <g id="Group_298" data-name="Group 298">
        <path id="Path_91" data-name="Path 91" class="cls-1" d="M61.314,3.227V30.173H3.227V3.227H61.314M64.541,0H0V33.4H64.541V0Z"/>
      </g>
    </g>
    <g id="Group_418" data-name="Group 418" transform="translate(262 195.6)">
      <path id="Path_152" data-name="Path 152" class="cls-1" d="M37.746,26.989a10.926,10.926,0,0,0-1.914-.558c-.4,0-.478.319-.718.877H33.839L33.6,21.089h1.515c.558,2.073,1.276,3.588,2.87,4.146l.877-6.3-.8-.239c-2.791-.877-4.385-2.153-4.385-5.183a5.378,5.378,0,0,1,5.741-5.5,4.212,4.212,0,0,1,1.037.08L40.776,5.7l1.276.159-.4,2.631a3.416,3.416,0,0,0,1.276.4c.4,0,.478-.319.638-.558h1.2l.159,5.422H43.407c-.478-1.834-1.116-2.95-2.073-3.508l-.8,5.342c2.87.8,5.422,1.754,5.422,5.661a5.754,5.754,0,0,1-6.14,6.06,3.574,3.574,0,0,1-.957-.08L38.544,29.7l-1.276-.159Zm1.674-11.8.8-5.422c-.239,0-.478-.08-.8-.08-1.754,0-3.11.957-3.11,2.551C36.311,13.992,37.587,14.63,39.421,15.188Zm4.226,7.256c0-1.993-1.2-2.551-3.429-3.189l-.877,6.3h.638C42.211,25.554,43.647,24.358,43.647,22.444Z"/>
    </g>
  </g>
</svg>
