<svg xmlns="http://www.w3.org/2000/svg" viewBox="-4286 -2207.673 40 31.111">
  <defs>
    <style>
      .cls-1 {
        fill: #cbdfff;
      }
    </style>
  </defs>
  <path id="icon_id" class="cls-1" d="M23.852,17.63h9.481a.854.854,0,0,0,.889-.889.956.956,0,0,0-.889-.889H23.852a.889.889,0,0,0,0,1.778Zm0-4.148h9.481a.854.854,0,0,0,.889-.889.956.956,0,0,0-.889-.889H23.852a.956.956,0,0,0-.889.889.854.854,0,0,0,.889.889Zm0-4h9.481a.854.854,0,0,0,.889-.889.956.956,0,0,0-.889-.889H23.852a.956.956,0,0,0-.889.889.956.956,0,0,0,.889.889ZM38.519,0H1.481A1.593,1.593,0,0,0,0,1.481V29.63a1.485,1.485,0,0,0,1.481,1.481H7.556A1.485,1.485,0,0,0,9.037,29.63V27.111h2.519V29.63a1.485,1.485,0,0,0,1.481,1.481h13.63a1.485,1.485,0,0,0,1.481-1.481V27.111h2.519V29.63a1.485,1.485,0,0,0,1.481,1.481h6.37A1.485,1.485,0,0,0,40,29.63V1.481A1.593,1.593,0,0,0,38.519,0Zm-1.63,28.148H33.778V25.63A1.485,1.485,0,0,0,32.3,24.148h-5.63a1.485,1.485,0,0,0-1.481,1.481v2.519H14.815V25.63a1.485,1.485,0,0,0-1.481-1.481H7.7A1.485,1.485,0,0,0,6.222,25.63v2.519H3.259V3.111H37.037V28.148ZM6.222,21.926H18.815a.956.956,0,0,0,.889-.889V19.7a4.562,4.562,0,0,0-.444-1.926,6.118,6.118,0,0,0-1.037-1.63,3.836,3.836,0,0,0-1.63-1.037l-.148-.148.148-.148a5.819,5.819,0,0,0,1.63-4.148,5.471,5.471,0,0,0-1.63-4,5.819,5.819,0,0,0-4.148-1.63,5.471,5.471,0,0,0-4,1.63,5.819,5.819,0,0,0-1.63,4.148,6.082,6.082,0,0,0,1.63,4.148l.148.148A3.778,3.778,0,0,0,6.815,16.3a2.717,2.717,0,0,0-1.037,1.481A4.1,4.1,0,0,0,5.333,19.7v1.333a.956.956,0,0,0,.889.889ZM9.778,8h0a3.793,3.793,0,0,1,2.815-1.185A4.047,4.047,0,0,1,15.407,8a3.793,3.793,0,0,1,1.185,2.815,4.047,4.047,0,0,1-1.185,2.815,4.12,4.12,0,0,1-5.63,0,4.047,4.047,0,0,1-1.185-2.815A3.793,3.793,0,0,1,9.778,8ZM7.259,19.556h0a2.791,2.791,0,0,1,.3-1.185A2.657,2.657,0,0,1,8.3,17.333a3.015,3.015,0,0,1,2.222-.889h4.3c.444,0,.741.148,1.185.148a2.657,2.657,0,0,1,1.037.741,2.388,2.388,0,0,1,.593,1.037,2.791,2.791,0,0,1,.3,1.185V20H7.259v-.444Z" transform="translate(-4286 -2207.673)"/>
</svg>
