<svg xmlns="http://www.w3.org/2000/svg" viewBox="-4285.322 -5867.716 40 40">
  <defs>
    <style>
      .cls-1 {
        fill: #cbdfff;
      }
    </style>
  </defs>
  <g id="icon_支付宝" transform="translate(-4285.322 -5867.716)">
    <path id="Path_79" data-name="Path 79" class="cls-1" d="M112.516,531.131a7.855,7.855,0,0,0-3.918,1.445c-3.118,2.727-1.282,7.616,4.959,7.616,3.6,0,7.2-2.326,10.159-6.012C119.638,532.176,116.2,530.731,112.516,531.131Z" transform="translate(-102.756 -509.408)"/>
    <path id="Path_80" data-name="Path 80" class="cls-1" d="M34.1.5H6.9A6.426,6.426,0,0,0,.5,6.912V34.088A6.426,6.426,0,0,0,6.9,40.5H34.1a6.426,6.426,0,0,0,6.4-6.412v-.241s-10.4-4.331-15.682-6.894c-3.518,4.327-8.078,6.976-12.8,6.976-7.918,0-10.641-6.976-6.882-11.543a8.391,8.391,0,0,1,4.4-2.486c3.441-.882,8.882.482,13.918,2.163A28.331,28.331,0,0,0,25.7,16.533H10.014v-1.6H18.1V12.2H8.341V10.6H18.1V6.512a.706.706,0,0,1,.718-.722h3.918V10.52h9.682v1.6H22.741v2.8h7.918A34.244,34.244,0,0,1,27.3,23.345c2.4.882,4.559,1.682,6.159,2.245A53.444,53.444,0,0,0,40.5,27.676V6.912A6.426,6.426,0,0,0,34.1.5Z" transform="translate(-0.5 -0.5)"/>
  </g>
</svg>
